# xmcd CD database file
#
# Track frame offsets:
#	150
#	17392
#	41155
#	58585
#	75002
#	93277
#	114816
#	133331
#	150936
#	165394
#	178883
#	200424
#	217987
#	234049
#	253301
#	269106
#	284324
#	300202
#	318327
#
# Disc length: 4457 seconds
#
# Revision: 0
# Processed by: cddbd v1.5.2PL0 Copyright (c) Steve Scherf et al.
# Submitted via: CDex 1.70beta2
#
DISCID=ee116713
DTITLE=Uwe Lorenz - Blues Bluesrock And Stuff Like That 10
DYEAR=2007
DGENRE=Blues
TTITLE0=Smooth Talk - Delbert McClinton
TTITLE1=Hot Foot Blues - Bill Wyman's Rhythm Kings
TTITLE2=Thing Called Love - Bonnie Raitt
TTITLE3=Ain't Leavin' Your Love - Calvin Russel
TTITLE4=It's The Whiskey That Eases... Darell Scott
TTITLE5=Money - Debbie Davies and Kenny Neal
TTITLE6=Great Rain - John Prine
TTITLE7=These Dreams Of You - Van Morrison
TTITLE8=Lawyers, Guns And Money - Hank Williams Jr.
TTITLE9=Dirty Man - Joss Stone
TTITLE10=Hard Day On The Planet Loudon Wainwright III
TTITLE11=Why Are People Like That? - Junior Wells
TTITLE12=Git You A Job - Kimmie Rhodes
TTITLE13=Let Me Play With Your Poodle - Marcia Ball
TTITLE14=Can't Let Go - Lucinda Williams
TTITLE15=Wanna Be With You - Rob Tognoni Band
TTITLE16=Blue Blue World - Roomful Of Blues
TTITLE17=You Can't Judge A Book... - Hank Williams Jr. and Huey Lewis
TTITLE18=Ice Water In Your Veins - Ruth Brown
EXTD=YEAR: 2007
EXTT0=
EXTT1=
EXTT2=
EXTT3=
EXTT4=
EXTT5=
EXTT6=
EXTT7=
EXTT8=
EXTT9=
EXTT10=
EXTT11=
EXTT12=
EXTT13=
EXTT14=
EXTT15=
EXTT16=
EXTT17=
EXTT18=
PLAYORDER=
